<svg width="56" height="56" viewBox="0 0 56 56" fill="none" xmlns="http://www.w3.org/2000/svg">
<path opacity="0" d="M39.174 1.33301H16.8273C7.12065 1.33301 1.33398 7.11967 1.33398 16.8263V39.1463C1.33398 48.8797 7.12065 54.6663 16.8273 54.6663H39.1473C48.854 54.6663 54.6407 48.8797 54.6407 39.173V16.8263C54.6673 7.11967 48.8807 1.33301 39.174 1.33301Z" fill="#512BD4" stroke="#512BD4" stroke-width="2.66667"/>
<path d="M24 19.4932H12C10.9067 19.4932 10 18.5865 10 17.4932C10 16.3998 10.9067 15.4932 12 15.4932H24C25.0933 15.4932 26 16.3998 26 17.4932C26 18.5865 25.0933 19.4932 24 19.4932Z" fill="#512BD4" stroke="#512BD4" stroke-width="2.66667"/>
<path d="M44 35.4932H32C30.9067 35.4932 30 34.5865 30 33.4932C30 32.3998 30.9067 31.4932 32 31.4932H44C45.0933 31.4932 46 32.3998 46 33.4932C46 34.5865 45.0933 35.4932 44 35.4932Z" fill="#512BD4" stroke="#512BD4" stroke-width="2.66667"/>
<path d="M44 45.4932H32C30.9067 45.4932 30 44.5865 30 43.4932C30 42.3998 30.9067 41.4932 32 41.4932H44C45.0933 41.4932 46 42.3998 46 43.4932C46 44.5865 45.0933 45.4932 44 45.4932Z" fill="#512BD4" stroke="#512BD4" stroke-width="2.66667"/>
<path d="M44 15.4932H40.0533V11.4932C40.0533 10.3998 39.1467 9.49316 38.0533 9.49316C36.96 9.49316 36.0533 10.3998 36.0533 11.4932V15.4932H32C30.9067 15.4932 30 16.3998 30 17.4932C30 18.5865 30.9067 19.4932 32 19.4932H36.0533V23.4933C36.0533 24.5866 36.96 25.4933 38.0533 25.4933C39.1467 25.4933 40.0533 24.5866 40.0533 23.4933V19.4932H44C45.0933 19.4932 46 18.5865 46 17.4932C46 16.3998 45.0933 15.4932 44 15.4932Z" fill="#512BD4" stroke="#512BD4" stroke-width="2.66667"/>
<path d="M20.8259 38.506L25.4127 33.9194C26.186 33.146 26.186 31.866 25.4127 31.0927C24.6393 30.3194 23.3593 30.3194 22.5859 31.0927L17.9992 35.6794L13.4125 31.0927C12.6392 30.3194 11.3592 30.3194 10.5859 31.0927C9.81253 31.866 9.81253 33.146 10.5859 33.9194L15.1725 38.506L10.5859 43.0927C9.81253 43.866 9.81253 45.146 10.5859 45.9194C10.9859 46.3194 11.4925 46.506 11.9992 46.506C12.5059 46.506 13.0125 46.3194 13.4125 45.9194L17.9992 41.3327L22.5859 45.9194C22.986 46.3194 23.4927 46.506 23.9993 46.506C24.506 46.506 25.0127 46.3194 25.4127 45.9194C26.186 45.146 26.186 43.866 25.4127 43.0927L20.8259 38.506Z" fill="#512BD4" stroke="#512BD4" stroke-width="2.66667"/>
</svg>
