<svg width="54" height="54" viewBox="0 0 54 54" fill="none" xmlns="http://www.w3.org/2000/svg">
<path opacity="0.4" d="M38.174 0.333008H15.8273C6.12065 0.333008 0.333984 6.11967 0.333984 15.8263V38.1463C0.333984 47.8797 6.12065 53.6663 15.8273 53.6663H38.1473C47.854 53.6663 53.6407 47.8797 53.6407 38.173V15.8263C53.6673 6.11967 47.8807 0.333008 38.174 0.333008Z" fill="#512BD4"/>
<path d="M23 18.4932H11C9.90667 18.4932 9 17.5865 9 16.4932C9 15.3998 9.90667 14.4932 11 14.4932H23C24.0933 14.4932 25 15.3998 25 16.4932C25 17.5865 24.0933 18.4932 23 18.4932Z" fill="#512BD4"/>
<path d="M43 34.4932H31C29.9067 34.4932 29 33.5865 29 32.4932C29 31.3998 29.9067 30.4932 31 30.4932H43C44.0933 30.4932 45 31.3998 45 32.4932C45 33.5865 44.0933 34.4932 43 34.4932Z" fill="#512BD4"/>
<path d="M43 44.4932H31C29.9067 44.4932 29 43.5865 29 42.4932C29 41.3998 29.9067 40.4932 31 40.4932H43C44.0933 40.4932 45 41.3998 45 42.4932C45 43.5865 44.0933 44.4932 43 44.4932Z" fill="#512BD4"/>
<path d="M43 14.4932H39.0533V10.4932C39.0533 9.39983 38.1467 8.49316 37.0533 8.49316C35.96 8.49316 35.0533 9.39983 35.0533 10.4932V14.4932H31C29.9067 14.4932 29 15.3998 29 16.4932C29 17.5865 29.9067 18.4932 31 18.4932H35.0533V22.4933C35.0533 23.5866 35.96 24.4933 37.0533 24.4933C38.1467 24.4933 39.0533 23.5866 39.0533 22.4933V18.4932H43C44.0933 18.4932 45 17.5865 45 16.4932C45 15.3998 44.0933 14.4932 43 14.4932Z" fill="#512BD4"/>
<path d="M19.8259 37.506L24.4127 32.9194C25.186 32.146 25.186 30.866 24.4127 30.0927C23.6393 29.3194 22.3593 29.3194 21.5859 30.0927L16.9992 34.6794L12.4125 30.0927C11.6392 29.3194 10.3592 29.3194 9.58586 30.0927C8.81253 30.866 8.81253 32.146 9.58586 32.9194L14.1725 37.506L9.58586 42.0927C8.81253 42.866 8.81253 44.146 9.58586 44.9194C9.98586 45.3194 10.4925 45.506 10.9992 45.506C11.5059 45.506 12.0125 45.3194 12.4125 44.9194L16.9992 40.3327L21.5859 44.9194C21.986 45.3194 22.4927 45.506 22.9993 45.506C23.506 45.506 24.0127 45.3194 24.4127 44.9194C25.186 44.146 25.186 42.866 24.4127 42.0927L19.8259 37.506Z" fill="#512BD4"/>
</svg>
